<svg width="151" height="106" viewBox="0 0 151 106" fill="none" xmlns="http://www.w3.org/2000/svg">
<path fill-rule="evenodd" clip-rule="evenodd" d="M1 1V98.5H64.5V84.5H33.5H11.5L14 80.5V13H64.5H82V84.5H96.5C142 84.5 142.5 42 96.5 42V26.5H126.5V13H96.5V1H1ZM96.5 55.5C123 52 123 75.5 96.5 73V55.5Z" fill="white"/>
<path fill-rule="evenodd" clip-rule="evenodd" d="M64.5 98.5V105H150V13H126.5V26.5H137.5V92H82V84.5V13H64.5L14 80.5L11.5 84.5H33.5L44 67.5H64.5V84.5V98.5ZM64.5 37.5L52.5 55.5H64.5V37.5Z" fill="black"/>
<path d="M64.5 98.5H1V1H96.5V13H126.5M64.5 98.5V105H150V13H126.5M64.5 98.5V84.5M64.5 13H14V80.5M64.5 13L14 80.5M64.5 13H82V84.5M14 80.5L11.5 84.5H33.5M64.5 84.5V67.5H44L33.5 84.5M64.5 84.5H33.5M82 84.5V92H137.5V26.5H126.5M82 84.5H96.5C142 84.5 142.5 42 96.5 42V26.5H126.5M126.5 13V26.5M52.5 55.5L64.5 37.5V55.5H52.5ZM96.5 55.5C123 52 123 75.5 96.5 73V55.5Z" stroke="black"/>
</svg>
