<svg width="17" height="20" viewBox="0 0 14 17" fill="none" xmlns="http://www.w3.org/2000/svg">
<path d="M1 3.08333C1 10.217 5.62639 16 11.3333 16C11.5908 16 11.8461 15.9882 12.0989 15.9651C12.3889 15.9385 12.5339 15.9253 12.666 15.8303C12.7753 15.7516 12.879 15.6121 12.9338 15.47C13 15.2985 13 15.0984 13 14.6983V12.3506C13 12.0141 13 11.8458 12.9557 11.7017C12.9166 11.5742 12.853 11.4608 12.7706 11.3713C12.6773 11.27 12.5508 11.2125 12.2979 11.0975L10.16 10.1257C9.86567 9.992 9.71847 9.92508 9.57887 9.93642C9.45573 9.94642 9.33727 9.999 9.2366 10.0882C9.12247 10.1892 9.04193 10.3571 8.8808 10.6928L8.33333 11.8333C6.56673 10.8332 5.1346 9.04075 4.33333 6.83333L5.24575 6.14902C5.5143 5.94761 5.64857 5.8469 5.72947 5.70422C5.8008 5.5784 5.84287 5.43031 5.85087 5.27642C5.85993 5.10189 5.8064 4.91794 5.6994 4.55004L4.92199 1.87767C4.83 1.56147 4.78401 1.40336 4.70295 1.28675C4.63134 1.18374 4.54059 1.10429 4.43868 1.05538C4.32331 1 4.18872 1 3.91955 1H2.04134C1.72125 1 1.56121 1 1.42399 1.08271C1.31033 1.15122 1.19876 1.28084 1.1358 1.41752C1.05979 1.58256 1.04917 1.76385 1.02793 2.12644C1.00942 2.44238 1 2.76148 1 3.08333Z" stroke="white" stroke-width="1.5" stroke-linecap="round" stroke-linejoin="round"/>
</svg>
